<svg id="Layer_1" data-name="Layer 1" xmlns="http://www.w3.org/2000/svg" viewBox="0 0 172.76 137.48"><defs><style>.cls-1{fill:#5778c1;}.cls-2{fill:#7d9fff;}.cls-3{fill:#4e7fea;}.cls-4{fill:none;stroke:#fff;stroke-miterlimit:10;}</style></defs><path class="cls-1" d="M463.8,317.41a63.49,63.49,0,1,0-31.61,67.87,43.2,43.2,0,0,1,31.61-67.87Z" transform="translate(-338 -266.19)"/><path class="cls-2" d="M467.55,317.24c-1.27,0-2.51.07-3.75.17a63.51,63.51,0,0,1-31.61,67.87,43.21,43.21,0,1,0,35.37-68Z" transform="translate(-338 -266.19)"/><path class="cls-3" d="M465,329.68a63.78,63.78,0,0,0-1.2-12.27,43.2,43.2,0,0,0-31.61,67.87A63.47,63.47,0,0,0,465,329.68Z" transform="translate(-338 -266.19)"/><path class="cls-4" d="M394.69,314.38l3.19-.56Z" transform="translate(-338 -266.19)"/><line class="cls-4" x1="57" y1="48.34" x2="146" y2="95.26"/><line class="cls-4" x1="56.63" y1="48.42" x2="57.93" y2="51.39"/><path class="cls-4" d="M402.67,338.23l2.38-.42Z" transform="translate(-338 -266.19)"/><line class="cls-4" x1="64.91" y1="72.16" x2="131.47" y2="107.26"/><line class="cls-4" x1="64.63" y1="72.22" x2="65.6" y2="74.44"/><path class="cls-4" d="M425.66,316.14l1.84-.33Z" transform="translate(-338 -266.19)"/><line class="cls-4" x1="87.84" y1="50.04" x2="139.29" y2="77.24"/><line class="cls-4" x1="87.63" y1="50.09" x2="88.38" y2="51.81"/><path class="cls-4" d="M463.8,317.41" transform="translate(-338 -266.19)"/></svg>