<svg id="Layer_1" data-name="Layer 1" xmlns="http://www.w3.org/2000/svg" viewBox="0 0 185.5 118.16"><defs><style>.cls-1{fill:#5778c1;}.cls-2{fill:#7d9fff;}.cls-3,.cls-4{fill:none;stroke:#fff;stroke-miterlimit:10;}.cls-4{stroke-width:1px;}</style></defs><path class="cls-1" d="M486.73,99.06c-4.74,19.47-26.36,31.31-48.29,26.44s-35.86-24.59-31.11-44.05S433.69,50.14,455.61,55,491.47,79.59,486.73,99.06Z" transform="translate(-397.5 -44.34)"/><path class="cls-1" d="M473.83,134.24c-2.85,11.69-19.45,18-37.07,14.09S407.15,131.77,410,120.08s19.45-18,37.07-14.09S476.68,122.55,473.83,134.24Z" transform="translate(-397.5 -44.34)"/><path class="cls-1" d="M530.69,117.3c-2.83,11.61-20.46,17.62-39.37,13.42s-32-17-29.13-28.62,20.46-17.62,39.37-13.42S533.52,105.69,530.69,117.3Z" transform="translate(-397.5 -44.34)"/><path class="cls-1" d="M518.91,88.22c-2.85,11.69-17.18,18.5-32,15.21S462.35,88,465.19,76.31s17.18-18.5,32-15.21S521.75,76.53,518.91,88.22Z" transform="translate(-397.5 -44.34)"/><path class="cls-1" d="M582.29,104c-4.49,18.43-29,28.74-54.84,23s-43.07-25.3-38.58-43.74,29-28.74,54.84-23S586.78,85.52,582.29,104Z" transform="translate(-397.5 -44.34)"/><path class="cls-1" d="M479.8,127.51c.08-.35-.89-.86-2.18-1.14s-2.4-.24-2.49.11.89.86,2.18,1.14S479.71,127.85,479.8,127.51Z" transform="translate(-397.5 -44.34)"/><path class="cls-1" d="M531.53,134.06c-2.55,10.48-22.32,15-44.16,10.2S449.9,127,452.45,116.52s22.32-15,44.16-10.2S534.09,123.58,531.53,134.06Z" transform="translate(-397.5 -44.34)"/><path class="cls-1" d="M495.21,101.73c18.34-2.23,31.66-15.6,29.76-29.86s-18.31-24-36.65-21.79-31.66,15.6-29.76,29.86S476.87,104,495.21,101.73Z" transform="translate(-397.5 -44.34)"/><ellipse class="cls-2" cx="438.87" cy="87.56" rx="38.62" ry="41.5" transform="translate(-143.27 450.86) rotate(-76.91)"/><ellipse class="cls-2" cx="433.66" cy="126.94" rx="23.19" ry="33.37" transform="translate(-185.67 476.26) rotate(-76.91)"/><ellipse class="cls-2" cx="489.19" cy="108.31" rx="23.03" ry="35.81" transform="translate(-124.57 515.93) rotate(-76.91)"/><ellipse class="cls-2" cx="484.71" cy="79.03" rx="23.19" ry="28.08" transform="translate(-99.51 488.92) rotate(-76.91)"/><ellipse class="cls-2" cx="529.04" cy="91.12" rx="36.57" ry="48.83" transform="translate(-76.99 541.45) rotate(-76.91)"/><ellipse class="cls-2" cx="469.86" cy="126.76" rx="0.69" ry="2.44" transform="translate(-157.49 511.38) rotate(-76.91)"/><ellipse class="cls-2" cx="484.66" cy="124.94" rx="20.78" ry="41.34" transform="translate(-144.27 524.38) rotate(-76.91)"/><ellipse class="cls-2" cx="484.42" cy="72.24" rx="34.09" ry="27.78" transform="translate(-402.74 17.45) rotate(-7.26)"/><circle class="cls-1" cx="145.63" cy="99.85" r="5.29"/><circle class="cls-1" cx="166.78" cy="112.87" r="5.29"/><circle class="cls-2" cx="144" cy="99.04" r="5.29"/><circle class="cls-2" cx="165.16" cy="112.06" r="5.29"/><rect class="cls-1" x="29.7" y="23.1" width="46.82" height="31.7"/><line class="cls-3" x1="33.5" y1="30.16" x2="71.5" y2="30.16"/><line class="cls-3" x1="52.5" y1="36.16" x2="70.5" y2="36.16"/><line class="cls-3" x1="52.5" y1="40.16" x2="70.5" y2="40.16"/><line class="cls-3" x1="52.5" y1="44.16" x2="70.5" y2="44.16"/><rect class="cls-4" x="34.86" y="34.67" width="13.56" height="17.09"/><rect class="cls-1" x="97.69" y="34.29" width="46.82" height="31.7"/><rect class="cls-4" x="101.76" y="37.31" width="39.06" height="17.09"/><rect class="cls-4" x="113.24" y="48.92" width="15.73" height="2.44"/><circle class="cls-4" cx="121.57" cy="60.23" r="0.51"/></svg>