<svg id="Layer_1" data-name="Layer 1" xmlns="http://www.w3.org/2000/svg" viewBox="0 0 253.72 197.55"><defs><style>.cls-1{fill:#5778c1;}.cls-2{fill:#7d9fff;}.cls-3,.cls-5,.cls-6{fill:none;}.cls-3,.cls-5,.cls-6,.cls-7{stroke:#fff;stroke-miterlimit:10;}.cls-3{stroke-width:1px;}.cls-4{fill:#fff;}.cls-5{stroke-width:0.57px;}.cls-7{fill:#a4bcf7;stroke-width:0.28px;}</style></defs><rect class="cls-1" x="0.14" y="0.14" width="196.37" height="123.72"/><rect class="cls-2" x="11.99" y="10.09" width="173.94" height="107.33" rx="12" ry="12"/><polygon class="cls-1" points="87 124.26 81.06 141.72 113.39 141.62 110.38 123.86 87 124.26"/><ellipse class="cls-1" cx="98.79" cy="140.71" rx="26.54" ry="4.93"/><rect class="cls-1" x="20.02" y="21.18" width="155.66" height="82.98"/><rect class="cls-3" x="30.33" y="37.42" width="129.86" height="44.73"/><rect class="cls-3" x="68.48" y="67.81" width="52.31" height="6.39"/><ellipse class="cls-3" cx="96.16" cy="97.42" rx="1.69" ry="1.33"/><rect class="cls-1" x="901.67" y="358.29" width="48.33" height="89.71" rx="12" ry="12" transform="translate(-558.01 -491.93) rotate(15.99)"/><path class="cls-2" d="M925.11,438.77l-17.37-5c-9.68-2.77-9-7.6-7.37-13.28L915.13,369a10.77,10.77,0,0,1,13.28-7.37l17.37,5a10.77,10.77,0,0,1,7.37,13.28L938.39,431.4A10.77,10.77,0,0,1,925.11,438.77Z" transform="translate(-704.86 -252.52)"/><circle class="cls-4" cx="916.16" cy="441.52" r="3.65" transform="matrix(0.28, -0.96, 0.96, 0.28, -465.48, 948.11)"/><rect class="cls-1" x="909.99" y="367.85" width="33.61" height="64.5" transform="translate(-558.81 -492.32) rotate(15.99)"/><rect class="cls-5" x="917.59" y="372.74" width="28.18" height="19.97" transform="translate(-563.41 -494.33) rotate(15.99)"/><rect class="cls-5" x="914.46" y="394.9" width="27.11" height="1.26" transform="translate(-560.02 -492.83) rotate(15.99)"/><circle class="cls-5" cx="924.53" cy="407.41" r="0.82" transform="translate(-426.62 931.45) rotate(-74.01)"/><line class="cls-6" x1="204.55" y1="157.73" x2="232.43" y2="165.71"/><line class="cls-6" x1="204" y1="159.65" x2="231.88" y2="167.64"/><line class="cls-6" x1="203.45" y1="161.57" x2="231.33" y2="169.56"/><line class="cls-6" x1="203.17" y1="162.53" x2="231.05" y2="170.52"/><line class="cls-6" x1="202.62" y1="164.46" x2="230.5" y2="172.44"/><rect class="cls-7" x="0.14" y="12.14" width="196.75" height="7.33"/><rect class="cls-7" x="143.48" y="0.14" width="10.21" height="123.72"/><path class="cls-7" d="M851.81,269.19l1.5,3.23s-3.45,3.79-7.22,4.61-9.95,2.44-9.95,2.44l-1.65-2.87s.1-.92,2.18-1.58,3.67-2.54,6.83-3.46S851.81,269.19,851.81,269.19Z" transform="translate(-704.86 -252.52)"/><path class="cls-7" d="M858.46,271.11c-1.53,2.1-6.79,1.08-11.75-2.29s-7.73-7.79-6.2-9.89,6.79-1.08,11.75,2.29S860,269,858.46,271.11Z" transform="translate(-704.86 -252.52)"/><path class="cls-7" d="M857.75,276l3.62-.61s3,4.15,2.87,7.88,0,9.89,0,9.89L861,294s-.9-.32-1.06-2.42-1.65-4.05-1.8-7.23S857.75,276,857.75,276Z" transform="translate(-704.86 -252.52)"/><path class="cls-7" d="M877.58,284.08c-1.53,2.1-6.79,1.08-11.75-2.29s-7.73-7.79-6.2-9.89,6.79-1.08,11.75,2.29S879.11,282,877.58,284.08Z" transform="translate(-704.86 -252.52)"/><path class="cls-7" d="M862.69,275.71a6.25,6.25,0,0,1-8.45,1.69,5.75,5.75,0,0,1-1.2-8.24,6.25,6.25,0,0,1,8.45-1.69A5.75,5.75,0,0,1,862.69,275.71Z" transform="translate(-704.86 -252.52)"/></svg>