<svg id="Layer_1" data-name="Layer 1" xmlns="http://www.w3.org/2000/svg" viewBox="0 0 265.97 271.27"><defs><style>.cls-1,.cls-4{fill:#f9f7f7;}.cls-1{stroke:#9e9e9e;}.cls-1,.cls-10,.cls-11,.cls-12,.cls-2,.cls-3,.cls-6{stroke-miterlimit:10;}.cls-1,.cls-3{stroke-width:1.42px;}.cls-2{fill:#9e9e9e;}.cls-2,.cls-3{stroke:#595959;}.cls-3{fill:#fff;}.cls-5{fill:#5b5a5a;}.cls-6{fill:none;stroke:#fff;}.cls-11,.cls-7{fill:#7d9fff;}.cls-10,.cls-8{fill:#36c1b3;}.cls-12,.cls-9{fill:#5778c1;}.cls-10,.cls-11,.cls-12{stroke:#494949;stroke-width:0.14px;}</style></defs><circle class="cls-1" cx="49.91" cy="158.13" r="2.29"/><rect class="cls-2" x="8.18" y="0.5" width="250" height="152" rx="12" ry="12"/><rect class="cls-3" x="14.65" y="7.3" width="236.85" height="137.77" rx="12" ry="12"/><path class="cls-2" d="M34,174.5H298s1.79,6.18,0,10.39-251.26,3.16-256.53,0S34,174.5,34,174.5Z" transform="translate(-33.32 -22)"/><circle class="cls-4" cx="39.91" cy="159.13" r="2.29"/><circle class="cls-4" cx="130.77" cy="3.99" r="1.14"/><rect class="cls-5" x="107.68" y="153" width="59" height="2"/><path class="cls-6" d="M119,276.78" transform="translate(-33.32 -22)"/><path class="cls-6" d="M73.63,269.07" transform="translate(-33.32 -22)"/><rect class="cls-7" x="29.05" y="19" width="126.63" height="39"/><rect class="cls-8" x="29.05" y="66.68" width="126.63" height="66.23"/><rect class="cls-9" x="161.69" y="16.5" width="79.63" height="114.53"/><polygon class="cls-10" points="107.25 264.84 114.96 261.33 116.22 268.19 111.6 270.3 107.25 264.84"/><polygon class="cls-10" points="117.99 258.42 121.64 250.77 127.02 255.22 124.83 259.81 117.99 258.42"/><polygon class="cls-10" points="122.09 246.6 119.97 238.4 126.96 238.34 128.23 243.26 122.09 246.6"/><polygon class="cls-10" points="117.64 234.9 110.74 229.98 116.06 225.45 120.19 228.4 117.64 234.9"/><polygon class="cls-10" points="106.7 228.81 98.26 229.47 99.42 222.59 104.49 222.19 106.7 228.81"/><polygon class="cls-10" points="94.42 231.17 88.37 237.1 84.83 231.08 88.46 227.52 94.42 231.17"/><polygon class="cls-10" points="86.52 240.88 85.7 249.31 79.12 246.97 79.61 241.91 86.52 240.88"/><polygon class="cls-10" points="86.71 253.39 91.5 260.37 84.96 262.81 82.08 258.62 86.71 253.39"/><polygon class="cls-10" points="94.89 262.85 103.06 265.12 99.61 271.19 94.71 269.83 94.89 262.85"/><polygon class="cls-10" points="107.25 264.84 114.96 261.33 116.22 268.19 111.6 270.3 107.25 264.84"/><path class="cls-10" d="M154.67,261a19.26,19.26,0,1,0-9.35,25.58A19.26,19.26,0,0,0,154.67,261ZM127,273.93a11.89,11.89,0,1,1,15.8,5.78A11.89,11.89,0,0,1,127,273.93Z" transform="translate(-33.32 -22)"/><polygon class="cls-11" points="184.28 184.58 195.09 179.66 196.86 189.29 190.38 192.24 184.28 184.58"/><polygon class="cls-11" points="199.34 175.58 204.46 164.86 212.01 171.09 208.94 177.53 199.34 175.58"/><polygon class="cls-11" points="205.09 159 202.12 147.5 211.91 147.42 213.7 154.32 205.09 159"/><polygon class="cls-11" points="198.84 142.6 189.17 135.7 196.63 129.35 202.43 133.49 198.84 142.6"/><polygon class="cls-11" points="183.51 134.06 171.67 134.99 173.3 125.33 180.4 124.77 183.51 134.06"/><polygon class="cls-11" points="166.28 137.37 157.81 145.69 152.84 137.25 157.93 132.25 166.28 137.37"/><polygon class="cls-11" points="155.21 150.98 154.06 162.8 144.84 159.52 145.52 152.43 155.21 150.98"/><polygon class="cls-11" points="155.47 168.52 162.2 178.31 153.02 181.74 148.98 175.86 155.47 168.52"/><polygon class="cls-11" points="166.95 181.79 178.4 184.97 173.57 193.49 166.7 191.59 166.95 181.79"/><polygon class="cls-11" points="184.28 184.58 195.09 179.66 196.86 189.29 190.38 192.24 184.28 184.58"/><path class="cls-11" d="M237.37,170.33a27,27,0,1,0-13.12,35.87A27,27,0,0,0,237.37,170.33Zm-38.81,18.15a16.68,16.68,0,1,1,22.15,8.1A16.68,16.68,0,0,1,198.56,188.48Z" transform="translate(-33.32 -22)"/><polygon class="cls-12" points="154.33 236.34 164.42 230.06 167.42 239.39 161.37 243.15 154.33 236.34"/><polygon class="cls-12" points="168.11 225.47 171.81 214.18 180.1 219.39 177.88 226.17 168.11 225.47"/><polygon class="cls-12" points="171.68 208.29 167.25 197.27 176.96 195.93 179.61 202.54 171.68 208.29"/><polygon class="cls-12" points="163.37 192.84 152.9 187.24 159.47 179.98 165.75 183.33 163.37 192.84"/><polygon class="cls-12" points="147.07 186.34 135.45 188.78 135.82 179 142.79 177.53 147.07 186.34"/><polygon class="cls-12" points="130.41 191.84 123.08 201.18 117.07 193.45 121.47 187.84 130.41 191.84"/><polygon class="cls-12" points="121.18 206.76 121.57 218.63 111.99 216.57 111.76 209.45 121.18 206.76"/><polygon class="cls-12" points="123.7 224.12 131.63 232.97 122.97 237.54 118.21 232.24 123.7 224.12"/><polygon class="cls-12" points="136.79 235.81 148.55 237.48 144.86 246.55 137.81 245.55 136.79 235.81"/><polygon class="cls-12" points="154.33 236.34 164.42 230.06 167.42 239.39 161.37 243.15 154.33 236.34"/><path class="cls-12" d="M202.59,219.85a27,27,0,1,0-8.39,37.26A27,27,0,0,0,202.59,219.85Zm-36.15,23a16.68,16.68,0,1,1,23,5.18A16.68,16.68,0,0,1,166.44,242.84Z" transform="translate(-33.32 -22)"/></svg>