<svg id="Layer_1" data-name="Layer 1" xmlns="http://www.w3.org/2000/svg" viewBox="0 0 240.44 138.74"><defs><style>.cls-1{fill:#7d9fff;}.cls-2,.cls-3,.cls-4{fill:none;stroke:#fff;stroke-miterlimit:10;}.cls-2{stroke-width:1px;}.cls-4{stroke-width:0.28px;}.cls-5{fill:#38578e;}</style></defs><rect class="cls-1" x="90" y="22.93" width="69.17" height="51.34"/><rect class="cls-2" x="96.02" y="27.82" width="57.71" height="27.67"/><rect class="cls-2" x="112.97" y="46.63" width="23.24" height="3.95"/><ellipse class="cls-2" cx="125.27" cy="64.94" rx="0.75" ry="0.82"/><rect class="cls-1" x="91.5" y="85.79" width="69.17" height="51.34"/><rect class="cls-2" x="99.11" y="104.51" width="54.61" height="27.67"/><rect class="cls-1" x="8.77" y="87.41" width="69.17" height="51.34"/><line class="cls-3" x1="14.87" y1="98.02" x2="69.87" y2="98.02"/><line class="cls-3" x1="41.87" y1="108.02" x2="68.87" y2="108.02"/><line class="cls-3" x1="41.87" y1="116.02" x2="68.87" y2="116.02"/><line class="cls-3" x1="41.87" y1="121.02" x2="68.87" y2="121.02"/><rect class="cls-2" x="16.39" y="106.13" width="20.04" height="27.67"/><rect class="cls-1" x="8.77" y="21.01" width="69.17" height="51.34"/><rect class="cls-2" x="16.39" y="27.82" width="54.13" height="13.84"/><rect class="cls-1" x="171.27" y="85.79" width="69.17" height="51.34"/><rect class="cls-2" x="219.99" y="107.67" width="14.24" height="21.24"/><rect class="cls-2" x="198.81" y="107.73" width="14.41" height="21.48"/><rect class="cls-1" x="169.8" y="24.25" width="69.17" height="51.34"/><line class="cls-3" x1="177.87" y1="29.02" x2="232.87" y2="29.02"/><ellipse class="cls-2" cx="42.54" cy="51.99" rx="0.75" ry="0.82"/><ellipse class="cls-2" cx="42.54" cy="63.32" rx="0.75" ry="0.82"/><line class="cls-3" x1="102.87" y1="97.02" x2="148.87" y2="97.02"/><line class="cls-4" x1="148.42" y1="116.1" x2="150.05" y2="117.89"/><line class="cls-4" x1="150.05" y1="117.89" x2="148.2" y2="119.91"/><line class="cls-4" x1="104.03" y1="116.1" x2="102.4" y2="117.89"/><line class="cls-4" x1="102.4" y1="117.89" x2="104.25" y2="119.91"/><rect class="cls-2" x="177.41" y="107.7" width="14.24" height="21.24"/><line class="cls-3" x1="177.87" y1="97.02" x2="232.87" y2="97.02"/><rect class="cls-2" x="180.27" y="34.74" width="46.49" height="11.88"/><ellipse class="cls-2" cx="205.04" cy="53.22" rx="0.75" ry="0.82"/><rect class="cls-2" x="180.27" y="59.82" width="46.49" height="11.88"/><line class="cls-3" x1="177.87" y1="91.02" x2="232.87" y2="91.02"/><path class="cls-5" d="M684.77,60.26l50.56,37.42c1.55,1.15,3.05-1.45,1.51-2.59L686.28,57.67c-1.55-1.15-3.05,1.45-1.51,2.59Z" transform="translate(-682.13 -43.48)"/><path class="cls-5" d="M693,96q14.14-16.82,29-33c1.31-1.42-.81-3.54-2.12-2.12q-14.91,16.14-29,33c-1.23,1.47.88,3.6,2.12,2.12Z" transform="translate(-682.13 -43.48)"/><path class="cls-5" d="M682.77,122.26l50.56,37.42c1.55,1.15,3.05-1.45,1.51-2.59l-50.56-37.42c-1.55-1.15-3.05,1.45-1.51,2.59Z" transform="translate(-682.13 -43.48)"/><path class="cls-5" d="M691,158q14.14-16.82,29-33c1.31-1.42-.81-3.54-2.12-2.12q-14.91,16.14-29,33c-1.23,1.47.88,3.6,2.12,2.12Z" transform="translate(-682.13 -43.48)"/><path class="cls-5" d="M768.77,129.26l50.56,37.42c1.55,1.15,3.05-1.45,1.51-2.59l-50.56-37.42c-1.55-1.15-3.05,1.45-1.51,2.59Z" transform="translate(-682.13 -43.48)"/><path class="cls-5" d="M777,165q14.14-16.82,29-33c1.31-1.42-.81-3.54-2.12-2.12q-14.91,16.14-29,33c-1.23,1.47.88,3.6,2.12,2.12Z" transform="translate(-682.13 -43.48)"/><path class="cls-5" d="M854.77,69.26l50.56,37.42c1.55,1.15,3.05-1.45,1.51-2.59L856.28,66.67c-1.55-1.15-3.05,1.45-1.51,2.59Z" transform="translate(-682.13 -43.48)"/><path class="cls-5" d="M863,105q14.14-16.82,29-33c1.31-1.42-.81-3.54-2.12-2.12q-14.91,16.14-29,33c-1.23,1.47.88,3.6,2.12,2.12Z" transform="translate(-682.13 -43.48)"/><path class="cls-5" d="M848.77,131.26l50.56,37.42c1.55,1.15,3.05-1.45,1.51-2.59l-50.56-37.42c-1.55-1.15-3.05,1.45-1.51,2.59Z" transform="translate(-682.13 -43.48)"/><path class="cls-5" d="M857,167q14.14-16.82,29-33c1.31-1.42-.81-3.54-2.12-2.12q-14.91,16.14-29,33c-1.23,1.47.88,3.6,2.12,2.12Z" transform="translate(-682.13 -43.48)"/><path class="cls-5" d="M780.56,83.45a225.12,225.12,0,0,0,17.56,17.13,1.53,1.53,0,0,0,2.12,0L853.55,46c1.35-1.38-.77-3.5-2.12-2.12L798.12,98.46h2.12a225.12,225.12,0,0,1-17.56-17.13c-1.31-1.42-3.43.7-2.12,2.12Z" transform="translate(-682.13 -43.48)"/></svg>