<svg id="Layer_1" data-name="Layer 1" xmlns="http://www.w3.org/2000/svg" xmlns:xlink="http://www.w3.org/1999/xlink" viewBox="0 0 288.06 288.06"><defs><style>.cls-1{fill:#7d9fff;}.cls-12,.cls-2{fill:none;stroke:#fff;stroke-miterlimit:10;}.cls-2{stroke-width:1.42px;}.cls-3{fill:url(#linear-gradient);}.cls-4{fill:url(#linear-gradient-3);}.cls-5{fill:url(#linear-gradient-5);}.cls-6{fill:url(#linear-gradient-7);}.cls-7{fill:url(#linear-gradient-9);}.cls-8{fill:url(#linear-gradient-11);}.cls-9{fill:url(#linear-gradient-13);}.cls-10{fill:url(#linear-gradient-15);}.cls-11{fill:url(#linear-gradient-17);}.cls-12{stroke-width:0.71px;}</style><linearGradient id="linear-gradient" x1="477.89" y1="307.17" x2="490.68" y2="301.68" gradientTransform="translate(789.69 -161.29) rotate(90)" gradientUnits="userSpaceOnUse"><stop offset="0.02" stop-color="#fff"/><stop offset="0.07" stop-color="#f0f4ff"/><stop offset="0.19" stop-color="#cddaff"/><stop offset="0.32" stop-color="#b0c5ff"/><stop offset="0.46" stop-color="#99b4ff"/><stop offset="0.6" stop-color="#89a8ff"/><stop offset="0.77" stop-color="#80a1ff"/><stop offset="1" stop-color="#7d9fff"/></linearGradient><linearGradient id="linear-gradient-3" x1="466.17" y1="307.84" x2="482.09" y2="301.01" gradientTransform="translate(780.36 -155.14) rotate(90)" xlink:href="#linear-gradient"/><linearGradient id="linear-gradient-5" x1="453.93" y1="308.74" x2="474.01" y2="300.12" gradientTransform="translate(771.03 -148.99) rotate(90)" xlink:href="#linear-gradient"/><linearGradient id="linear-gradient-7" x1="441" y1="308.43" x2="466.64" y2="297.43" gradientTransform="translate(760.79 -144.21) rotate(90)" xlink:href="#linear-gradient"/><linearGradient id="linear-gradient-9" x1="427.15" y1="320.07" x2="460.18" y2="305.9" gradientTransform="translate(757.54 -128.83) rotate(90)" xlink:href="#linear-gradient"/><linearGradient id="linear-gradient-11" x1="396.95" y1="328.65" x2="409.74" y2="323.16" gradientTransform="translate(728.32 -92.53) rotate(90)" xlink:href="#linear-gradient"/><linearGradient id="linear-gradient-13" x1="405.54" y1="329.32" x2="421.46" y2="322.49" gradientTransform="translate(737.65 -98.68) rotate(90)" xlink:href="#linear-gradient"/><linearGradient id="linear-gradient-15" x1="413.61" y1="330.22" x2="433.7" y2="321.6" gradientTransform="translate(746.99 -104.83) rotate(90)" xlink:href="#linear-gradient"/><linearGradient id="linear-gradient-17" x1="420.99" y1="331.41" x2="446.63" y2="320.41" gradientTransform="translate(756.32 -110.98) rotate(90)" xlink:href="#linear-gradient"/></defs><circle class="cls-1" cx="441.6" cy="317.1" r="143.99" transform="translate(-321.49 424.82) rotate(-66.78)"/><ellipse class="cls-2" cx="440.4" cy="316.13" rx="85.24" ry="127.86" transform="translate(-311.28 439.17) rotate(-68.78)"/><ellipse class="cls-2" cx="440.4" cy="316.13" rx="85.24" ry="127.86" transform="translate(-385.62 22.1) rotate(-22.78)"/><ellipse class="cls-2" cx="440.4" cy="316.13" rx="127.86" ry="85.24" transform="translate(-321.33 423.14) rotate(-66.78)"/><ellipse class="cls-2" cx="445.88" cy="318.48" rx="127.86" ry="85.24" transform="translate(-386.1 24.4) rotate(-22.78)"/><rect class="cls-3" x="472.34" y="320.96" width="25.85" height="4.06" transform="translate(-300.46 468.53) rotate(-66.78)"/><rect class="cls-3" x="472.34" y="320.96" width="25.85" height="4.06" transform="translate(-300.46 468.53) rotate(-66.78)"/><rect class="cls-4" x="458.7" y="316.96" width="34.47" height="4.06" transform="translate(-302.44 457.52) rotate(-66.78)"/><rect class="cls-4" x="458.7" y="316.96" width="34.47" height="4.06" transform="translate(-302.44 457.52) rotate(-66.78)"/><rect class="cls-5" x="443.62" y="312.96" width="45.96" height="4.06" transform="translate(-304.41 446.52) rotate(-66.78)"/><rect class="cls-5" x="443.62" y="312.96" width="45.96" height="4.06" transform="translate(-304.41 446.52) rotate(-66.78)"/><rect class="cls-6" x="427.22" y="307.57" width="61.28" height="4.06" transform="translate(-304.76 435.23) rotate(-66.78)"/><rect class="cls-6" x="427.22" y="307.57" width="61.28" height="4.06" transform="translate(-304.76 435.23) rotate(-66.78)"/><rect class="cls-7" x="403.71" y="312.81" width="81.7" height="4.06" transform="translate(-317.62 426.18) rotate(-66.78)"/><rect class="cls-7" x="403.71" y="312.81" width="81.7" height="4.06" transform="translate(-317.62 426.18) rotate(-66.78)"/><rect class="cls-8" x="389.49" y="308.79" width="25.85" height="4.06" transform="translate(-339.46 385.01) rotate(-66.78)"/><rect class="cls-8" x="389.49" y="308.79" width="25.85" height="4.06" transform="translate(-339.46 385.01) rotate(-66.78)"/><rect class="cls-9" x="394.51" y="312.79" width="34.47" height="4.06" transform="translate(-337.49 396.02) rotate(-66.78)"/><rect class="cls-9" x="394.51" y="312.79" width="34.47" height="4.06" transform="translate(-337.49 396.02) rotate(-66.78)"/><rect class="cls-10" x="398.1" y="316.8" width="45.96" height="4.06" transform="translate(-335.51 407.02) rotate(-66.78)"/><rect class="cls-10" x="398.1" y="316.8" width="45.96" height="4.06" transform="translate(-335.51 407.02) rotate(-66.78)"/><rect class="cls-11" x="399.77" y="320.8" width="61.28" height="4.06" transform="translate(-333.54 418.02) rotate(-66.78)"/><rect class="cls-11" x="399.77" y="320.8" width="61.28" height="4.06" transform="translate(-333.54 418.02) rotate(-66.78)"/><ellipse class="cls-12" cx="144.43" cy="143.93" rx="139" ry="141"/></svg>