<svg id="Layer_1" data-name="Layer 1" xmlns="http://www.w3.org/2000/svg" viewBox="0 0 253 298.47"><defs><style>.cls-1{fill:#5778c1;}.cls-2{fill:#4afff2;}.cls-3{fill:#eaeaea;}.cls-4{fill:#7d9fff;}.cls-5,.cls-6,.cls-8,.cls-9{fill:none;stroke-miterlimit:10;}.cls-5,.cls-6{stroke:#000;}.cls-5{stroke-width:0.28px;}.cls-7{fill:#4e7fea;}.cls-8,.cls-9{stroke:#fff;}.cls-8{stroke-width:0px;}</style></defs><rect class="cls-1" x="32" y="35.89" width="184" height="34.25"/><rect class="cls-2" x="17.5" y="34.14" width="217" height="7.5" rx="3.75" ry="3.75"/><rect class="cls-3" x="60.5" width="127" height="154.97"/><rect class="cls-4" x="12.4" y="65.32" width="231.6" height="42.8" rx="12" ry="12"/><rect class="cls-1" y="77.48" width="253" height="115.02"/><rect x="38.98" y="63.34" width="170.04" height="7.5" rx="3.75" ry="3.75"/><rect x="17.5" y="190.97" width="221.5" height="7.42"/><rect class="cls-4" x="51.45" y="165.7" width="153.5" height="24" rx="12" ry="12"/><rect class="cls-3" x="456.1" y="418.26" width="115.23" height="116.68" transform="translate(-374.85 -249.53) rotate(1.32)"/><rect x="62.98" y="87.43" width="117.02" height="15.2" rx="3.75" ry="3.75"/><circle class="cls-2" cx="20.41" cy="134.8" r="4.91"/><circle cx="31.75" cy="135.13" r="2.25"/><path d="M477.6,425.27c3.54-1.32,7-2,5.74,3.15a.21.21,0,0,0,.39.16c1.69-2.21,8-7,8.1-1.38a.21.21,0,0,0,.32.18c.93-.5,4.54-2.7,5.59-2.23,1.42.63.62.55.6,1.68,0,1.59-1.08,1.95-.34,3.54,1.06,2.26,3.63,2.1,5.59,1.48.26-.08.15-.49-.11-.41q-6.86-.85-4.73-4.49a5.13,5.13,0,0,0,.63-2.24.22.22,0,0,0-.26-.26c-1.61.32-3.58,1.46-5.15,1.55-2,.12-1.44-.43-2-2.1a.21.21,0,0,0-.15-.15,7.59,7.59,0,0,0-4.48,1.07c-.82.43-1.91,1.74-2.68,2-1.41.47.52,1.14-.2-1.08-.61-1.88.75-.88-.79-2-1.29-.91-5,.68-6.18,1.11-.25.09-.14.51.11.41Z" transform="translate(-386 -237.79)"/><path d="M501.73,427.26a3.55,3.55,0,0,0,3-2.07c.09-.18-.1-.42-.29-.29-.75.5-1.65,2.15-.91,3,1.27,1.51,4.18-2.16,4.42-.21,0,.16.23.3.36.15.45-.52.91-1.34,1.66-1.37,1.06,0,.23,0,.65.82.18.35.07.83.44,1.11.78.59,1.05-.07,1.65-.48s.33-1,1.18-.35c-.49-.38.4,1,.33,1,.31.3.31.5.83.62,1.31.3,2-1.15,2.33-2.09.1-.26-.31-.37-.41-.11q-2.72,1.89-2.82-.16a3,3,0,0,0-.34-.61.22.22,0,0,0-.37,0,1.45,1.45,0,0,1-2.65-.78c0-.14-.18-.29-.32-.18-.74.56-2.11,2.46-2.27,1.11,0-.15-.17-.28-.32-.18a11.6,11.6,0,0,1-1.46.9,3.77,3.77,0,0,1-4.7-.24c-.27,0-.27.46,0,.43Z" transform="translate(-386 -237.79)"/><path d="M514.83,424.44a19.74,19.74,0,0,0,5.12-1.8c.24-.13,0-.49-.21-.37a19.31,19.31,0,0,1-5,1.76c-.27.05-.15.46.11.41Z" transform="translate(-386 -237.79)"/><line class="cls-5" x1="84.77" y1="282.48" x2="171.04" y2="287.13"/><line class="cls-5" x1="85.85" y1="272.25" x2="145.95" y2="276.24"/><line class="cls-5" x1="85.78" y1="263.08" x2="145.88" y2="267.07"/><line class="cls-5" x1="85.71" y1="254.5" x2="145.82" y2="258.49"/><line class="cls-5" x1="85.64" y1="244.74" x2="145.74" y2="248.73"/><line class="cls-5" x1="85.57" y1="235.57" x2="145.68" y2="239.56"/><line class="cls-5" x1="85.5" y1="226.4" x2="145.61" y2="230.39"/><line class="cls-5" x1="85.44" y1="217.23" x2="145.54" y2="221.22"/><line class="cls-5" x1="85.37" y1="208.06" x2="145.47" y2="212.05"/><line class="cls-5" x1="85.3" y1="198.89" x2="145.4" y2="202.88"/><line class="cls-6" x1="154.02" y1="202.59" x2="170.54" y2="203.84"/><line class="cls-6" x1="154.12" y1="215.6" x2="170.64" y2="216.86"/><line class="cls-6" x1="154.18" y1="224.22" x2="170.7" y2="225.48"/><line class="cls-6" x1="154.25" y1="232.84" x2="170.77" y2="234.1"/><line class="cls-6" x1="154.31" y1="241.63" x2="170.83" y2="242.89"/><line class="cls-6" x1="154.38" y1="250.09" x2="170.89" y2="251.34"/><line class="cls-6" x1="154.44" y1="258.71" x2="170.96" y2="259.96"/><line class="cls-6" x1="154.51" y1="267.67" x2="171.03" y2="268.92"/><line class="cls-6" x1="154.57" y1="275.95" x2="171.09" y2="277.2"/><path class="cls-1" d="M539.11,427.71a5.61,5.61,0,1,0-2.79,6,3.82,3.82,0,0,1,2.79-6Z" transform="translate(-386 -237.79)"/><path class="cls-4" d="M539.45,427.7l-.33,0a5.61,5.61,0,0,1-2.79,6,3.82,3.82,0,1,0,3.12-6Z" transform="translate(-386 -237.79)"/><path class="cls-7" d="M539.22,428.8a5.63,5.63,0,0,0-.11-1.08,3.82,3.82,0,0,0-2.79,6A5.61,5.61,0,0,0,539.22,428.8Z" transform="translate(-386 -237.79)"/><path class="cls-8" d="M533,427.44l.28,0Z" transform="translate(-386 -237.79)"/><line class="cls-8" x1="147.04" y1="189.67" x2="154.9" y2="193.82"/><line class="cls-8" x1="147" y1="189.68" x2="147.12" y2="189.94"/><path class="cls-8" d="M533.71,429.55l.21,0Z" transform="translate(-386 -237.79)"/><line class="cls-8" x1="147.73" y1="191.78" x2="153.62" y2="194.88"/><line class="cls-8" x1="147.71" y1="191.78" x2="147.8" y2="191.98"/><path class="cls-8" d="M535.75,427.6l.16,0Z" transform="translate(-386 -237.79)"/><line class="cls-8" x1="149.76" y1="189.82" x2="154.31" y2="192.22"/><line class="cls-8" x1="149.74" y1="189.83" x2="149.81" y2="189.98"/><path class="cls-9" d="M539.11,427.71" transform="translate(-386 -237.79)"/></svg>