<svg id="Layer_1" data-name="Layer 1" xmlns="http://www.w3.org/2000/svg" viewBox="0 0 179 102.91"><defs><style>.cls-1{fill:#5778c1;}.cls-2{fill:#7d9fff;}.cls-3{fill:#c4c4c4;}.cls-4{fill:#fff;}</style></defs><path class="cls-1" d="M254,104.45c0,27.31-39,49.45-87,49.45-26.76,0-50.7-6.87-66.66-17.67a62.07,62.07,0,0,1-8.58-6.94C84.28,122,80,113.51,80,104.45,80,77.14,119,55,167,55S254,77.14,254,104.45Z" transform="translate(-75 -51)"/><polygon class="cls-1" points="5 102.91 41.63 93.76 16.76 78.29 5 102.91"/><path class="cls-2" d="M249,100.45c0,27.31-39,49.45-87,49.45-26.76,0-50.7-6.87-66.66-17.67a62.07,62.07,0,0,1-8.58-6.94C79.28,118,75,109.51,75,100.45,75,73.14,114,51,162,51S249,73.14,249,100.45Z" transform="translate(-75 -51)"/><polygon class="cls-2" points="0 98.91 36.63 89.76 11.76 74.29 0 98.91"/><circle class="cls-3" cx="49.5" cy="49.5" r="7.5"/><circle class="cls-3" cx="90" cy="49.5" r="7.5"/><circle class="cls-3" cx="130.5" cy="49.5" r="7.5"/><circle class="cls-4" cx="46.5" cy="49.5" r="7.5"/><circle class="cls-4" cx="87" cy="49.5" r="7.5"/><circle class="cls-4" cx="127.5" cy="49.5" r="7.5"/></svg>