<svg id="Layer_1" data-name="Layer 1" xmlns="http://www.w3.org/2000/svg" viewBox="0 0 128 127.15"><defs><style>.cls-1{fill:#f4c3ee;}.cls-2{fill:#5778c1;}.cls-3{fill:#7d9fff;}.cls-4{fill:#38578e;}</style></defs><path class="cls-1" d="M125.79,282.33c-.74-.28-1.5-.52-2.27-.75l-.06.3Z" transform="translate(-66 -273)"/><path class="cls-1" d="M148.76,306.62l-.05-.16,0,.16Z" transform="translate(-66 -273)"/><path class="cls-1" d="M105.1,355.32c1,.2,2,.36,3,.48l0-.22Z" transform="translate(-66 -273)"/><path class="cls-2" d="M147.39,318c.07,1,.11,2.06.11,3,0,.27,0,1,0,1H157v-4Z" transform="translate(-66 -273)"/><path class="cls-1" d="M76.15,308.71a38.14,38.14,0,0,0-.76,3.9l.42,0Z" transform="translate(-66 -273)"/><path class="cls-1" d="M77,305.73l0,.14h0Z" transform="translate(-66 -273)"/><path class="cls-2" d="M149,321v-4.5h0V316h.32a37,37,0,0,0-1.55-8.05l0-.16,0-.25a38.08,38.08,0,0,0-22.92-24.17l-2.33-.47.06-.31c-.77-.23-1.55-.44-2.34-.62v.11l-4.48-.39,0-.47a37.53,37.53,0,0,0-32,12.39l14.94,12.89a17.95,17.95,0,0,1,27.17,23.44L141,343.18A36.32,36.32,0,0,0,149.46,321Z" transform="translate(-66 -273)"/><path class="cls-2" d="M120.41,274l-4.29-.38-.83,9.45a35.74,35.74,0,0,1,4.26.72Z" transform="translate(-66 -273)"/><path class="cls-2" d="M126,285.49l2-10.13-4.23-.82-1.9,9.84c.73.22,1.46.46,2.17.72Z" transform="translate(-66 -273)"/><rect class="cls-2" x="126.22" y="280.39" width="9.76" height="4.3" transform="translate(-245.44 33.67) rotate(-69.55)"/><rect class="cls-2" x="133.13" y="284.75" width="9.54" height="4.3" transform="translate(-240.13 -49.13) rotate(-52.91)"/><rect class="cls-2" x="138.83" y="290.71" width="9.23" height="4.3" transform="translate(-213.65 -127.14) rotate(-37.11)"/><rect class="cls-2" x="142.79" y="296.59" width="9.54" height="4.3" transform="translate(-189.15 -168.52) rotate(-28.05)"/><path class="cls-2" d="M155,306.45l-.9-4.21-9,1.92.87,4.05.05.15Z" transform="translate(-66 -273)"/><rect class="cls-2" x="147.27" y="310.23" width="8.63" height="4.3" transform="translate(-120.07 -240.38) rotate(-10.44)"/><rect class="cls-2" x="149.67" y="321.83" width="4.3" height="9.11" transform="translate(-252.56 176.19) rotate(-85)"/><rect class="cls-2" x="148.23" y="328.76" width="4.3" height="9.11" transform="translate(-271.37 144.86) rotate(-79.08)"/><rect class="cls-2" x="146.3" y="334.82" width="4.3" height="9.76" transform="translate(-287.7 87.11) rotate(-69.55)"/><polygon class="cls-2" points="76.59 68.21 74.99 70.33 82.59 76.08 83.83 74.45 76.59 68.21"/><rect class="cls-2" x="43" width="5" height="9"/><polygon class="cls-2" points="10.39 16.33 18 22.08 19.56 20.02 12.32 13.78 10.39 16.33"/><rect class="cls-2" x="83.3" y="281.32" width="4.3" height="9.23" transform="translate(-221.21 -163.53) rotate(-37.11)"/><rect class="cls-2" x="89.18" y="277.06" width="4.3" height="9.54" transform="translate(-187.8 -196.95) rotate(-28.05)"/><rect class="cls-2" x="95.74" y="274.77" width="4.3" height="9.21" transform="translate(-122.17 -246.41) rotate(-12.05)"/><rect class="cls-2" x="102.81" y="273.49" width="4.3" height="8.63" transform="translate(-114.58 -249.39) rotate(-10.44)"/><path class="cls-1" d="M75,317h0v4h.13c-.08-1-.13-1.77-.13-2.79C75,317.72,75,317,75,317Z" transform="translate(-66 -273)"/><path class="cls-1" d="M76,321v-4H75s0,.72,0,1.21" transform="translate(-66 -273)"/><path class="cls-3" d="M113,335.45a17.94,17.94,0,0,1-13.32-30L84.69,292.6A38.08,38.08,0,0,0,77,305.73l0,.14h0c-.31.93-.6,1.88-.84,2.84l-.34,3.94-.42.16c-.19,1.31-.3,3.19-.35,4.19h1v5h-.87a37.46,37.46,0,0,0,30,33.78l3,0,0,.11A38.23,38.23,0,0,0,142,342.09l-15.23-13.15A17.91,17.91,0,0,1,113,335.45Z" transform="translate(-66 -273)"/><path class="cls-3" d="M104.63,354.2l-.83,9.48,4.48.39.81-9.26c-1-.12-2-.28-3-.48Z" transform="translate(-66 -273)"/><rect class="cls-3" x="94.46" y="355.39" width="9.52" height="4.5" transform="translate(-336.73 114.34) rotate(-79.08)"/><rect class="cls-3" x="87.46" y="353.37" width="10.19" height="4.5" transform="translate(-338.98 45.09) rotate(-69.55)"/><rect class="cls-3" x="80.48" y="348.81" width="9.96" height="4.5" transform="translate(-312.11 -65.49) rotate(-52.91)"/><rect class="cls-3" x="74.84" y="342.59" width="9.64" height="4.5" transform="translate(-257.92 -155.1) rotate(-37.11)"/><rect class="cls-3" x="70.38" y="336.45" width="9.96" height="4.5" transform="translate(-216.42 -197.77) rotate(-28.05)"/><rect class="cls-3" x="68" y="329.6" width="9.62" height="4.5" transform="translate(-133.68 -250.49) rotate(-12.05)"/><rect class="cls-3" x="66.66" y="322.2" width="9.01" height="4.5" transform="translate(-123.59 -254.74) rotate(-10.44)"/><rect class="cls-3" x="46" y="82" width="5" height="10"/><rect class="cls-3" x="138.33" y="345.42" width="4.5" height="9.64" transform="translate(-248.85 -117.25) rotate(-37.11)"/><rect class="cls-3" x="132.19" y="349.56" width="4.5" height="9.96" transform="translate(-216.93 -168.13) rotate(-28.05)"/><rect class="cls-3" x="126.34" y="352.28" width="4.5" height="9.62" transform="translate(-137.72 -238.28) rotate(-12.05)"/><rect class="cls-3" x="118.95" y="355.24" width="4.5" height="9.01" transform="translate(-129.15 -245.1) rotate(-10.44)"/><path class="cls-3" d="M77.2,307.17l-9.48-.83-.39,4.48,9.07.79a38.14,38.14,0,0,1,.76-3.9Z" transform="translate(-66 -273)"/><path class="cls-3" d="M78.86,300.46l-9.35-1.8-.85,4.41,9.33,1.8,0-.14Z" transform="translate(-66 -273)"/><rect class="cls-3" x="74.53" y="290" width="4.5" height="10.19" transform="translate(-280.83 -67) rotate(-58.43)"/><rect class="cls-3" x="1" y="43" width="9" height="4"/><path class="cls-4" d="M130.91,317.49a17.94,17.94,0,0,0-31.28-12l27.17,23.44A17.88,17.88,0,0,0,130.91,317.49Z" transform="translate(-66 -273)"/><path class="cls-4" d="M113,335.45a17.92,17.92,0,0,0,13.85-6.53L99.64,305.48a17.94,17.94,0,0,0,13.32,30Z" transform="translate(-66 -273)"/><path class="cls-1" d="M175.7,352.42c-.43-.16-.87-.3-1.32-.44l0,.18Z" transform="translate(-66 -273)"/><path class="cls-1" d="M189,366.51l0-.09,0,.1Z" transform="translate(-66 -273)"/><path class="cls-2" d="M188.23,373c0,1,.06,1,.06,1.58,0,.15,0,.42,0,.42H194v-2Z" transform="translate(-66 -273)"/><path class="cls-1" d="M146.89,367.72a22.13,22.13,0,0,0-.44,2.26l.24,0Z" transform="translate(-66 -273)"/><path class="cls-1" d="M147.4,366l0,.08h0Z" transform="translate(-66 -273)"/><path class="cls-2" d="M189,375v-2.75h0V372h.35a19,19,0,0,0-.9-4.69v-.1l0-.15a22.1,22.1,0,0,0-13.3-14l-1.35-.27,0-.18c-.45-.13-.9-.26-1.36-.36v.06l-2.6-.23,0-.27A21.78,21.78,0,0,0,151.27,359l8.67,7.48A10.42,10.42,0,0,1,175.71,380l8.84,7.76a21.41,21.41,0,0,0,4.89-12.8Z" transform="translate(-66 -273)"/><path class="cls-2" d="M172.57,347.58l-2.49-.22-.48,5.49a20.74,20.74,0,0,1,2.47.42Z" transform="translate(-66 -273)"/><path class="cls-2" d="M175.8,354.25l1.13-5.88-2.45-.47-1.1,5.71c.43.13.85.26,1.26.42Z" transform="translate(-66 -273)"/><rect class="cls-2" x="175.95" y="351.29" width="5.66" height="2.5" transform="translate(-280.01 123.88) rotate(-69.55)"/><rect class="cls-2" x="179.96" y="353.82" width="5.53" height="2.5" transform="translate(-276.71 13.69) rotate(-52.91)"/><rect class="cls-2" x="183.27" y="357.28" width="5.36" height="2.5" transform="translate(-244.66 -88.2) rotate(-37.11)"/><rect class="cls-2" x="185.56" y="360.69" width="5.54" height="2.5" transform="translate(-214.08 -141.92) rotate(-28.05)"/><path class="cls-2" d="M192.63,366.41l-.52-2.44-5.23,1.12.5,2.35,0,.09Z" transform="translate(-66 -273)"/><rect class="cls-2" x="188.16" y="368.6" width="5.01" height="2.5" transform="translate(-129.84 -232.35) rotate(-10.44)"/><rect class="cls-2" x="189.56" y="375.34" width="2.5" height="5.29" transform="translate(-268.37 262.12) rotate(-85)"/><rect class="cls-2" x="188.72" y="379.36" width="2.5" height="5.29" transform="translate(-287.09 223.2) rotate(-79.08)"/><rect class="cls-2" x="187.6" y="382.88" width="2.5" height="5.66" transform="translate(-304.53 154.9) rotate(-69.55)"/><polygon class="cls-2" points="119.45 113.59 118.52 114.82 122.93 118.16 123.65 117.21 119.45 113.59"/><rect class="cls-2" x="100" y="74" width="3" height="5"/><polygon class="cls-2" points="81.03 83.48 85.44 86.81 86.35 85.62 82.15 82 81.03 83.48"/><rect class="cls-2" x="151.04" y="351.83" width="2.5" height="5.36" transform="translate(-249.05 -109.32) rotate(-37.11)"/><rect class="cls-2" x="154.45" y="349.35" width="2.5" height="5.54" transform="translate(-213.3 -158.42) rotate(-28.05)"/><rect class="cls-2" x="158.26" y="348.03" width="2.5" height="5.35" transform="translate(-135.71 -231.97) rotate(-12.05)"/><rect class="cls-2" x="162.36" y="347.28" width="2.5" height="5.01" transform="translate(-126.65 -237.58) rotate(-10.44)"/><path class="cls-1" d="M146.24,373H146v2h.3c0-1-.08-.87-.08-1.46A3.81,3.81,0,0,1,146.24,373Z" transform="translate(-66 -273)"/><path class="cls-1" d="M147,375v-2h-.76a2.84,2.84,0,0,1,.08.54" transform="translate(-66 -273)"/><path class="cls-3" d="M168.25,383.24a10.41,10.41,0,0,1-7.73-17.39l-8.67-7.48A22.1,22.1,0,0,0,147.4,366l0,.08h0c-.18.54-.35,1.09-.49,1.65l-.2,2.28-.24.33a24.44,24.44,0,0,0-.21,2.66H147v2h-.7a21.85,21.85,0,0,0,17.4,19.82l1.74.13v.12a21.8,21.8,0,0,0,19.7-8l-8.84-7.62A10.4,10.4,0,0,1,168.25,383.24Z" transform="translate(-66 -273)"/><path class="cls-3" d="M163.42,394.12l-.48,5.5,2.6.23.47-5.38c-.58-.07-1.16-.16-1.73-.28Z" transform="translate(-66 -273)"/><rect class="cls-3" x="157.52" y="394.81" width="5.52" height="2.61" transform="translate(-325.02 205.49) rotate(-79.08)"/><rect class="cls-3" x="153.46" y="393.64" width="5.91" height="2.61" transform="translate(-334.29 130.52) rotate(-69.55)"/><rect class="cls-3" x="149.4" y="391" width="5.78" height="2.61" transform="translate(-318.48 4.19) rotate(-52.91)"/><rect class="cls-3" x="146.13" y="387.38" width="5.6" height="2.61" transform="matrix(0.8, -0.6, 0.6, 0.8, -270.35, -104.43)"/><rect class="cls-3" x="143.54" y="383.82" width="5.78" height="2.61" transform="translate(-229.9 -158.9) rotate(-28.05)"/><rect class="cls-3" x="142.16" y="379.84" width="5.59" height="2.61" transform="translate(-142.38 -234.34) rotate(-12.05)"/><rect class="cls-3" x="141.38" y="375.56" width="5.23" height="2.61" transform="translate(-131.88 -240.69) rotate(-10.44)"/><rect class="cls-3" x="102" y="122" width="3" height="5"/><rect class="cls-3" x="182.98" y="389.03" width="2.61" height="5.6" transform="translate(-265.09 -82.46) rotate(-37.11)"/><rect class="cls-3" x="179.42" y="391.43" width="2.61" height="5.78" transform="translate(-230.2 -141.7) rotate(-28.05)"/><rect class="cls-3" x="176.02" y="393.01" width="2.61" height="5.59" transform="translate(-144.73 -227.26) rotate(-12.05)"/><rect class="cls-3" x="171.73" y="394.73" width="2.61" height="5.23" transform="translate(-135.11 -235.09) rotate(-10.44)"/><path class="cls-3" d="M147.5,366.83l-5.5-.48-.23,2.6,5.26.46a22.13,22.13,0,0,1,.44-2.26Z" transform="translate(-66 -273)"/><path class="cls-3" d="M148.46,362.93l-5.42-1-.49,2.56,5.41,1,0-.08Z" transform="translate(-66 -273)"/><rect class="cls-3" x="145.95" y="356.87" width="2.61" height="5.91" transform="translate(-302.4 23.87) rotate(-58.43)"/><rect class="cls-3" x="76" y="99" width="5" height="2"/><path class="cls-4" d="M178.67,372.82a10.41,10.41,0,0,0-18.15-7l15.77,13.6A10.38,10.38,0,0,0,178.67,372.82Z" transform="translate(-66 -273)"/><path class="cls-4" d="M168.25,383.24a10.4,10.4,0,0,0,8-3.79l-15.77-13.6a10.41,10.41,0,0,0,7.73,17.39Z" transform="translate(-66 -273)"/></svg>